<?xml version="1.0" standalone="no"?>
<!DOCTYPE svg PUBLIC "-//W3C//DTD SVG 20010904//EN"
 "http://www.w3.org/TR/2001/REC-SVG-20010904/DTD/svg10.dtd">
<svg version="1.0" xmlns="http://www.w3.org/2000/svg"
 width="852.000000pt" height="17.000000pt" viewBox="0 0 852.000000 17.000000"
 preserveAspectRatio="xMidYMid meet">

<g transform="translate(0.000000,17.000000) scale(0.100000,-0.100000)"
fill="#DB5252" stroke="none">
<path d="M6475 154 c-143 -7 -611 -15 -1040 -19 -429 -3 -827 -8 -885 -11 -74
-3 -99 -1 -85 6 14 7 -8 8 -75 5 -52 -3 -147 -7 -210 -10 -207 -11 -1765 -20
-2745 -17 -943 3 -1407 -6 -1428 -27 -8 -8 24 -11 107 -11 100 0 121 -3 131
-17 11 -14 39 -17 216 -20 126 -3 213 -9 227 -16 15 -7 84 -11 195 -10 95 1
588 2 1097 3 509 0 1062 5 1230 11 168 6 541 15 830 19 289 4 615 13 725 19
283 18 1620 18 1870 1 159 -11 212 -11 325 1 96 9 298 14 692 15 397 0 561 4
571 12 7 6 65 14 128 18 63 4 125 12 139 19 24 13 24 13 -20 19 -46 5 -1536
28 -1665 25 -38 -1 -187 -8 -330 -15z"/>
</g>
</svg>
